<svg xmlns="http://www.w3.org/2000/svg" viewBox="0 0 658 658" role="img" aria-label="Blissful Blinds">
  <g transform="translate(63.50,116.50)">
    <path d="M 251 2.417 C 251 4.506, 251.675 4.979, 255.969 5.900 C 258.703 6.486, 263.287 8.098, 266.157 9.483 C 269.026 10.867, 271.774 12, 272.262 12 C 274.303 12, 286.979 21.090, 291.919 26.096 C 305.574 39.932, 311.746 50.804, 317.161 70.558 C 320.156 81.486, 320.384 103.994, 317.610 115 C 314.319 128.058, 304.773 149, 302.112 149 C 301.703 149, 300.403 150.717, 299.224 152.815 C 298.045 154.913, 294.762 158.626, 291.928 161.065 C 289.095 163.504, 285.139 166.978, 283.138 168.785 C 281.137 170.591, 277.137 173.437, 274.250 175.108 C 270.396 177.339, 269 178.739, 269 180.376 C 269 182.162, 270.044 182.975, 274.250 184.468 C 308.282 196.546, 336.832 223.876, 345.318 252.500 C 346.133 255.250, 347.574 259.975, 348.520 263 C 350.816 270.340, 351.677 293.449, 350.042 303.797 C 348.961 310.635, 346.892 319.342, 344.165 328.529 C 341.741 336.697, 328.889 361.765, 325.980 364 C 325.622 364.275, 324.918 365.250, 324.415 366.167 C 320.280 373.701, 303.732 389.825, 289.930 399.767 C 280.874 406.291, 258.934 417, 254.625 417 C 253.486 417, 253 417.898, 253 420.002 L 253 423.004 328.250 422.668 L 403.500 422.332 417.855 419.658 C 425.750 418.188, 435.650 415.835, 439.855 414.429 C 446.876 412.083, 464.448 404.324, 468 402.002 C 468.825 401.462, 471.106 400.149, 473.069 399.082 C 486.760 391.646, 507.950 369.422, 516.247 353.797 C 526.319 334.828, 530.335 318.606, 530.431 296.500 C 530.629 250.732, 510.932 218.244, 470.104 197 C 460.229 191.862, 442.498 185.617, 433.153 183.985 C 429.662 183.376, 425.612 182.402, 424.153 181.823 C 421.628 180.819, 421.814 180.678, 427.987 178.896 C 431.555 177.866, 437.405 175.807, 440.987 174.320 C 447.026 171.814, 449.964 170.162, 461.989 162.511 C 467.177 159.211, 482 144.350, 482 142.449 C 482 141.744, 482.386 141.017, 482.857 140.833 C 485.093 139.964, 493.051 123.551, 495.411 114.940 C 498.511 103.629, 499.026 82.509, 496.493 70.552 C 494.224 59.838, 487.882 45.555, 482.513 39.067 C 477.652 33.190, 469.509 24.466, 468.549 24.105 C 467.972 23.887, 465.868 22.431, 463.874 20.869 C 457.712 16.042, 441.553 8.376, 431.798 5.652 C 412.070 0.143, 409.418 -0, 327.011 -0 L 251 0 251 2.417 M 343.750 15.543 C 342.680 16.671, 342.843 174.204, 343.916 175.899 C 345.358 178.175, 371.885 176.721, 384.500 173.674 C 416.497 165.947, 436.677 145.814, 443.138 115.176 C 446.214 100.589, 445.419 74.914, 441.538 63.500 C 432.834 37.902, 417.335 23.674, 391.938 17.968 C 382.036 15.743, 345.313 13.895, 343.750 15.543 M 337.065 190.578 C 337.785 191.446, 340.428 193.267, 342.937 194.625 C 350.741 198.848, 353.169 200.408, 356.359 203.250 C 358.056 204.762, 359.739 206, 360.097 206 C 361.489 206, 375.358 220.935, 379.647 227.052 C 387.793 238.671, 393.808 253.426, 397.562 271 C 400.311 283.868, 398.257 319.110, 394.327 326.500 C 393.742 327.600, 392.955 330.207, 392.578 332.294 C 391.648 337.442, 382.966 355.028, 377.419 363 C 371.349 371.722, 359.888 383.510, 351.113 390.056 C 341.973 396.874, 340.303 402.026, 346.707 403.648 C 350.546 404.620, 379.714 402.447, 389.500 400.460 C 406.025 397.105, 424.216 389.743, 433.444 382.676 C 443.826 374.725, 455.272 361.976, 460.086 353 C 461.414 350.525, 462.745 348.275, 463.045 348 C 463.959 347.162, 469.911 330.792, 471.045 326 C 477.857 297.206, 475.561 265.902, 465.178 246 C 457.031 230.383, 442.490 213.976, 432.458 209.081 C 429.731 207.750, 427.275 206.355, 427 205.980 C 425.580 204.047, 399.871 194.006, 396.331 194.002 C 395.138 194.001, 391.538 193.339, 388.331 192.530 C 383.109 191.214, 353.214 189.002, 340.628 189.001 C 336.303 189, 335.902 189.177, 337.065 190.578" fill="#C6183A" stroke="#FFFFFF" stroke-width="7" stroke-opacity="0.9" paint-order="stroke fill" stroke-linejoin="round"/>
    <path d="M -0 21.468 L -0 35.935 98.750 36.235 C 195.791 36.530, 197.625 36.572, 204.713 38.644 C 218.965 42.809, 230.333 50.375, 238.053 60.831 C 259.569 89.975, 252.739 139.915, 224.131 162.628 C 214.323 170.415, 200.128 177.085, 191 178.196 C 188.648 178.482, 188.500 178.852, 188.500 184.441 L 188.500 190.383 198 192.066 C 230.598 197.844, 255.326 212.659, 269.957 235.176 C 294.506 272.956, 285.766 328.287, 249.845 362.500 C 221.668 389.337, 200.578 399.815, 160.500 406.892 C 145.817 409.485, 96.636 412.553, 94.733 410.995 C 92.141 408.872, 115.695 392.101, 133.370 383.486 C 157.266 371.838, 186.945 365, 213.606 365 C 220.634 365, 221 364.887, 221 362.722 C 221 360.624, 220.112 360.262, 209.750 358.127 C 191.337 354.334, 184.902 351.979, 182.266 348.066 L 180 344.704 180 203.064 C 180 63.397, 180.028 61.368, 182 57.500 C 186.055 49.547, 187.747 50, 154 50 C 124.165 50, 124 50.012, 124 52.106 C 124 53.264, 125.098 55.516, 126.439 57.110 C 127.781 58.705, 129.151 61.920, 129.484 64.255 C 129.816 66.590, 129.956 134.650, 129.794 215.500 L 129.500 362.500 126.540 368.348 C 124.078 373.211, 120.626 376.848, 106.040 389.948 C 84.010 409.733, 75 419.187, 75 422.519 L 75 425 120.300 425 C 145.215 425, 171.653 424.521, 179.050 423.936 C 257.024 417.764, 317.679 374.770, 334.166 313.983 C 337.453 301.866, 337.473 272.525, 334.202 260.671 C 326.660 233.339, 309.874 212.673, 283.200 197.880 C 272.950 192.195, 253.271 185.155, 241.577 182.990 L 234.653 181.708 242.077 179.056 C 267.066 170.129, 286.575 153.818, 296.564 133.500 C 302.507 121.410, 304.136 114.777, 304.737 100.209 C 306.536 56.606, 279.716 25.241, 229.691 12.444 C 208.950 7.139, 205.610 7, 98.814 7 L 0 7 -0 21.468" fill="#0F172A" stroke="#FFFFFF" stroke-width="7" stroke-opacity="0.9" paint-order="stroke fill" stroke-linejoin="round"/>
  </g>
</svg>
